<svg width="100%" height="100%" viewBox="0 0 1440 1000" preserveAspectRatio="none" xmlns="http://www.w3.org/2000/svg"><g fill="none" stroke="#333" stroke-width="1.5" stroke-opacity="0.15"><path d="M-700 -50 C -500 100 -300 -50 -100 100 C 100 -50 300 100 500 -50 C 700 100 900 -50 1100 100 C 1300 -50 1500 100 1700 -50 C 1900 100 2100 -50 2300 100 C 2500 -50 2700 100 2900 -50" stroke-width="2"/><path d="M-700 0 C -500 150 -300 0 -100 150 C 100 0 300 150 500 0 C 700 150 900 0 1100 150 C 1300 0 1500 150 1700 0 C 1900 150 2100 0 2300 150 C 2500 0 2700 150 2900 0" stroke-width="2"/><path d="M-700 50 C -500 200 -300 50 -100 200 C 100 50 300 200 500 50 C 700 200 900 50 1100 200 C 1300 50 1500 200 1700 50 C 1900 200 2100 50 2300 200 C 2500 50 2700 200 2900 50" stroke-width="2"/><path d="M-700 100 C -500 250 -300 100 -100 250 C 100 100 300 250 500 100 C 700 250 900 100 1100 250 C 1300 100 1500 250 1700 100 C 1900 250 2100 100 2300 250 C 2500 100 2700 250 2900 100" stroke-width="2"/><path d="M-700 150 C -500 300 -300 150 -100 300 C 100 150 300 300 500 150 C 700 300 900 150 1100 300 C 1300 150 1500 300 1700 150 C 1900 300 2100 150 2300 300 C 2500 150 2700 300 2900 150" stroke-width="2"/><path d="M-700 200 C -500 350 -300 200 -100 350 C 100 200 300 350 500 200 C 700 350 900 200 1100 350 C 1300 200 1500 350 1700 200 C 1900 350 2100 200 2300 350 C 2500 200 2700 350 2900 200" stroke-width="2"/><path d="M-700 250 C -500 400 -300 250 -100 400 C 100 250 300 400 500 250 C 700 400 900 250 1100 400 C 1300 250 1500 400 1700 250 C 1900 400 2100 250 2300 400 C 2500 250 2700 400 2900 250" stroke-width="2"/><path d="M-700 300 C -500 450 -300 300 -100 450 C 100 300 300 450 500 300 C 700 450 900 300 1100 450 C 1300 300 1500 450 1700 300 C 1900 450 2100 300 2300 450 C 2500 300 2700 450 2900 300" stroke-width="2"/><path d="M-700 350 C -500 500 -300 350 -100 500 C 100 350 300 500 500 350 C 700 500 900 350 1100 500 C 1300 350 1500 500 1700 350 C 1900 500 2100 350 2300 500 C 2500 350 2700 500 2900 350" stroke-width="2"/><path d="M-700 400 C -500 550 -300 400 -100 550 C 100 400 300 550 500 400 C 700 550 900 400 1100 550 C 1300 400 1500 550 1700 400 C 1900 550 2100 400 2300 550 C 2500 400 2700 550 2900 400" stroke-width="2"/><path d="M-700 450 C -500 600 -300 450 -100 600 C 100 450 300 600 500 450 C 700 600 900 450 1100 600 C 1300 450 1500 600 1700 450 C 1900 600 2100 450 2300 600 C 2500 450 2700 600 2900 450" stroke-width="2"/><path d="M-700 500 C -500 650 -300 500 -100 650 C 100 500 300 650 500 500 C 700 650 900 500 1100 650 C 1300 500 1500 650 1700 500 C 1900 650 2100 500 2300 650 C 2500 500 2700 650 2900 500" stroke-width="2"/><path d="M-700 550 C -500 700 -300 550 -100 700 C 100 550 300 700 500 550 C 700 700 900 550 1100 700 C 1300 550 1500 700 1700 550 C 1900 700 2100 550 2300 700 C 2500 550 2700 700 2900 550" stroke-width="2"/><path d="M-700 600 C -500 750 -300 600 -100 750 C 100 600 300 750 500 600 C 700 750 900 600 1100 750 C 1300 600 1500 750 1700 600 C 1900 750 2100 600 2300 750 C 2500 600 2700 750 2900 600" stroke-width="2"/><path d="M-700 650 C -500 800 -300 650 -100 800 C 100 650 300 800 500 650 C 700 800 900 650 1100 800 C 1300 650 1500 800 1700 650 C 1900 800 2100 650 2300 800 C 2500 650 2700 800 2900 650" stroke-width="2"/><path d="M-700 700 C -500 850 -300 700 -100 850 C 100 700 300 850 500 700 C 700 850 900 700 1100 850 C 1300 700 1500 850 1700 700 C 1900 850 2100 700 2300 850 C 2500 700 2700 850 2900 700" stroke-width="2"/><path d="M-700 750 C -500 900 -300 750 -100 900 C 100 750 300 900 500 750 C 700 900 900 750 1100 900 C 1300 750 1500 900 1700 750 C 1900 900 2100 750 2300 900 C 2500 750 2700 900 2900 750" stroke-width="2"/><path d="M-700 800 C -500 950 -300 800 -100 950 C 100 800 300 950 500 800 C 700 950 900 800 1100 950 C 1300 800 1500 950 1700 800 C 1900 950 2100 800 2300 950 C 2500 800 2700 950 2900 800" stroke-width="2"/><path d="M-700 850 C -500 1000 -300 850 -100 1000 C 100 850 300 1000 500 850 C 700 1000 900 850 1100 1000 C 1300 850 1500 1000 1700 850 C 1900 1000 2100 850 2300 1000 C 2500 850 2700 1000 2900 850" stroke-width="2"/><path d="M-700 900 C -500 1050 -300 900 -100 1050 C 100 900 300 1050 500 900 C 700 1050 900 900 1100 1050 C 1300 900 1500 1050 1700 900 C 1900 1050 2100 900 2300 1050 C 2500 900 2700 1050 2900 900" stroke-width="2"/><path d="M-700 950 C -500 1100 -300 950 -100 1100 C 100 950 300 1100 500 950 C 700 1100 900 950 1100 1100 C 1300 950 1500 1100 1700 950 C 1900 1100 2100 950 2300 1100 C 2500 950 2700 1100 2900 950" stroke-width="2"/></g></svg>