<?xml version="1.0" encoding="UTF-8"?><svg id="Ebene_1" xmlns="http://www.w3.org/2000/svg" viewBox="0 0 1000 426.09"><defs><style>.cls-1{fill:#756af2;}</style></defs><path class="cls-1" d="M227.27,249.34c9.08-9.13,18.05-18.15,27.31-27.46,9.08,13.61,17.96,26.93,27.06,40.58H132.26c20.36-33.06,40.5-65.78,60.84-98.82,.65,.89,1.12,1.47,1.54,2.1,14.46,21.55,28.9,43.1,43.39,64.62,.94,1.39,.95,2.22-.31,3.41-3.71,3.48-7.29,7.1-10.92,10.67-2.15,2.11-2.14,2.32,.47,4.91Zm-33.86-77.41c-7.05,11.29-13.8,22.11-20.56,32.92l.48,.5c2.59-1.54,5.18-3.08,8.07-4.8,1.08,5.44,2.08,10.52,3.08,15.59l.65,.08c1.98-6.2,3.96-12.39,6.14-19.19,3.75,6.67,7.19,12.77,10.62,18.86l.71-.18c.29-5,.58-10,.9-15.61,5.48,4.47,10.49,8.57,15.51,12.66,.17-.18,.35-.35,.52-.53-8.59-13.25-17.18-26.5-26.12-40.29Z"/><path class="cls-1" d="M358.55,215.69c4.38-11.22,8.52-21.89,12.71-32.55,.8-2.04,1.25-4.76,2.79-5.83,1.47-1.02,4.15-.31,6.29-.33,3.57-.02,7.13,0,11.17,0-10.99,28.04-21.84,55.72-32.95,84.04-5.18-13.77-10.13-26.92-15.32-40.72-5.07,13.75-9.9,26.85-14.73,39.96-.19,0-.38,.02-.57,.03-10.83-27.61-21.66-55.22-32.6-83.09,.89-.09,1.49-.2,2.08-.2,4.59-.01,9.18,.05,13.76-.04,1.48-.03,2.12,.5,2.64,1.84,4.36,11.29,8.79,22.56,13.2,33.83,.31,.79,.65,1.58,1.23,2.98,5.09-12.99,9.97-25.45,14.85-37.92,.18-.03,.36-.06,.53-.09,4.9,12.52,9.8,25.04,14.92,38.09Z"/><path class="cls-1" d="M397.68,177.11h16.36c0,.95,0,1.78,0,2.62,0,9.32,.04,18.63-.04,27.95-.02,1.79,.51,2.33,2.29,2.3,6.67-.09,13.33-.09,20,0,1.77,.02,2.35-.47,2.33-2.28-.08-9.32-.04-18.63-.04-27.95,0-.84,.08-1.68,.13-2.76,5.25,0,10.32-.03,15.38,.05,.39,0,.94,.69,1.1,1.16,.19,.58,.06,1.27,.06,1.92,0,25.44,0,50.88,0,76.32q0,2.98-3.07,2.98c-3.73,0-7.46-.09-11.18,.04-1.86,.06-2.47-.48-2.45-2.41,.1-9.32,.04-18.63,.04-27.95v-2.46h-24.49v32.59h-16.42v-82.12Z"/><path class="cls-1" d="M827.29,206.95c.47-.78,.96-1.56,1.42-2.35,4.97-8.55,9.97-17.09,14.86-25.68,.87-1.53,1.86-2.04,3.57-2,5.43,.1,10.86,.04,16.72,.04-.55,1.07-.88,1.82-1.29,2.53-7.23,12.46-14.45,24.93-21.75,37.34-.9,1.53-.84,2.58,.18,4.02,8.42,11.95,16.77,23.96,25.13,35.96,.48,.69,.94,1.41,1.61,2.42-.93,.11-1.53,.24-2.13,.24-5.38,.02-10.75-.04-16.13,.04-1.41,.02-2.21-.56-2.97-1.66-5.86-8.49-11.78-16.96-17.68-25.42-.49-.7-1-1.38-1.91-2.63-.06,1.3-.12,2.01-.12,2.71,0,8.1-.06,16.2,.04,24.3,.02,2.01-.46,2.81-2.61,2.72-4.01-.16-8.03-.1-12.04-.02-1.54,.03-2.15-.4-2.15-2.05,.04-26.16,.04-52.32,0-78.48,0-1.65,.59-2.06,2.14-2.03,4.16,.09,8.32,.11,12.47,0,1.74-.05,2.2,.57,2.19,2.22-.06,8.53-.03,17.06-.03,25.59v2.09c.16,.04,.33,.09,.49,.13Z"/><path class="cls-1" d="M601.3,177.09v11.25q0,5.23-5.13,5.23c-8.46,0-16.92,.05-25.38-.04-1.87-.02-2.51,.5-2.44,2.42,.14,4.01,.1,8.03,.01,12.04-.03,1.52,.5,1.97,1.98,1.96,6.81-.06,13.62,.03,20.43-.06,1.8-.02,2.35,.57,2.31,2.34-.11,4.01-.12,8.03,0,12.04,.06,1.85-.65,2.28-2.37,2.26-6.67-.08-13.34,.04-20-.08-1.96-.04-2.42,.61-2.37,2.45,.12,4.5,.04,9.01,.04,13.79h32.65c.11,.8,.25,1.35,.25,1.9,.02,4.3-.02,8.6,.03,12.9,.01,1.3-.29,1.97-1.78,1.97-15.34-.04-30.69-.04-46.03,0-1.46,0-1.8-.6-1.8-1.93,.02-26.23,.01-52.47,.02-78.7,0-.55,.13-1.11,.2-1.73h49.37Z"/><path class="cls-1" d="M674.43,176.96c1.82,0,3.39,0,4.96,0,13.98,0,27.95,.04,41.93-.05,2-.01,2.6,.57,2.53,2.53-.14,3.86-.16,7.74,0,11.6,.09,2.17-.72,2.61-2.71,2.59-9.32-.09-18.63,0-27.95-.09-1.92-.02-2.46,.58-2.39,2.45,.14,3.65,.04,7.31,.04,10.96q0,2.95,2.86,2.95c6.59,0,13.19,.04,19.78-.03,1.58-.02,2.16,.46,2.12,2.07-.09,4.23-.02,8.45-.04,12.68,0,.55-.13,1.1-.23,1.84h-24.31v16.28c.86,0,1.69,0,2.52,0,9.32,0,18.63,.04,27.95-.04,1.74-.01,2.41,.43,2.35,2.26-.12,4.15-.07,8.31-.03,12.47,.01,1.27-.23,2.01-1.75,2-15.55-.04-31.1-.04-46.66-.05-.27,0-.55-.1-.98-.19v-82.27Z"/><path class="cls-1" d="M626.14,234.71c0,7.46,0,14.55,0,21.64q0,3.09-3.17,3.1c-3.8,0-7.6-.05-11.39,.02-1.49,.03-2.18-.32-2.18-2.02,.04-26.15,.03-52.3,0-78.45,0-1.37,.24-2.08,1.87-2.07,9.39,.08,18.78-.14,28.16,.11,14.01,.37,25.63,11.04,27.56,24.92,1.9,13.64-6.3,27.07-19.5,31.2-3.74,1.17-7.88,1.2-11.85,1.5-3.05,.23-6.13,.04-9.5,.04Zm.01-16.88c5.22,0,10.19,.48,15.02-.12,5.6-.7,9.61-6.38,9.45-12.13-.16-5.68-4.65-11.19-10.06-11.71-4.33-.41-8.72-.23-13.08-.2-.45,0-1.27,.77-1.27,1.18-.08,7.65-.06,15.29-.06,22.98Z"/><path class="cls-1" d="M766.82,176.07c12.34,27.56,24.68,55.13,37.18,83.05-1.13,.05-1.81,.11-2.5,.11-4.44,0-8.89-.07-13.33,.04-1.63,.04-2.44-.54-3.03-2.02-1.2-2.99-2.62-5.89-3.87-8.87-.47-1.12-1.06-1.66-2.38-1.65-8.24,.06-16.49,.06-24.73,0-1.32,0-1.9,.54-2.37,1.66-1.29,3.03-2.75,5.99-4.02,9.03-.54,1.29-1.24,1.87-2.71,1.84-5.15-.09-10.3-.03-16.04-.03,12.5-28.01,24.81-55.6,37.12-83.2,.23,.01,.46,.03,.69,.04Zm-7.25,55.78h14.06c-2.33-5.49-4.55-10.73-7.02-16.53-2.51,5.9-4.74,11.12-7.05,16.53Z"/><path class="cls-1" d="M486.95,193.43c0-5.25-.04-10.32,.08-15.39,0-.37,1.2-1.01,1.86-1.02,4.8-.09,9.6-.05,14.41-.05,13.05,0,26.09,.03,39.14-.04,1.75,0,2.4,.45,2.34,2.27-.12,4.01-.14,8.03,0,12.04,.07,1.99-.7,2.4-2.49,2.36-5.02-.1-10.03-.03-15.05-.03q-3.08,0-3.08,2.99c0,19.92,0,39.84,0,59.76q0,3.09-2.99,3.1c-3.73,0-7.46-.09-11.18,.04-1.94,.07-2.57-.5-2.56-2.52,.07-19.71,.06-39.41,.03-59.12,0-4.85,.63-4.22-4.19-4.25-4.52-.03-9.03,0-13.55-.01-.84,0-1.69-.08-2.76-.13Z"/><path class="cls-1" d="M479.75,259.39c-5.25,0-10.25,.03-15.26-.05-.4,0-.92-.68-1.14-1.16-.19-.41-.05-.98-.05-1.49,0-25.66,0-51.31,0-76.97q0-2.75,2.84-2.76c4.49,0,8.99,0,13.61,0v82.42Z"/></svg>