<svg xmlns="http://www.w3.org/2000/svg" xmlns:xlink="http://www.w3.org/1999/xlink" width="800" zoomAndPan="magnify" viewBox="0 0 600 599.999999" height="800" preserveAspectRatio="xMidYMid meet" version="1.0"><path fill="#000000" d="M 315.453125 250.046875 C 315.324219 251.824219 314.484375 253.230469 312.953125 254.257812 C 311.414062 255.269531 309.5 255.773438 307.195312 255.773438 C 305.15625 255.773438 302.277344 255.492188 298.574219 254.917969 C 294.863281 254.351562 291.054688 253.683594 287.15625 252.910156 C 283.273438 252.144531 279.859375 251.511719 276.921875 251 C 272.445312 250.105469 268.285156 249.308594 264.449219 248.597656 C 260.632812 247.898438 256.863281 247.285156 253.164062 246.757812 C 243.835938 250.359375 233.863281 255.097656 223.25 260.972656 C 212.65625 266.828125 201.992188 273.988281 191.265625 282.425781 C 183.34375 288.546875 175.964844 295.253906 169.121094 302.53125 C 162.277344 309.820312 156.78125 317.167969 152.632812 324.578125 C 148.488281 332 146.414062 339.148438 146.414062 346.035156 C 146.414062 350.90625 147.746094 354.648438 150.429688 357.257812 C 153.101562 359.863281 157.578125 361.171875 163.855469 361.171875 C 171.003906 361.171875 178.539062 359.832031 186.460938 357.15625 C 194.375 354.484375 201.847656 351.09375 208.871094 346.988281 C 217.691406 341.878906 226.507812 336.164062 235.328125 329.84375 C 244.148438 323.527344 253.664062 316.15625 263.890625 307.730469 C 265.15625 306.203125 266.464844 304.566406 267.804688 302.828125 C 269.140625 301.101562 270.257812 299.53125 271.164062 298.125 C 272.5625 295.953125 273.769531 294.167969 274.78125 292.757812 C 275.8125 291.359375 276.707031 290.71875 277.480469 290.851562 C 278.246094 290.851562 278.664062 291.625 278.730469 293.15625 C 278.796875 294.691406 278.574219 296.394531 278.074219 298.253906 C 277.5625 300.097656 276.667969 301.660156 275.375 302.929688 C 274.363281 303.832031 273.054688 305.015625 271.460938 306.480469 C 269.855469 307.953125 267.78125 309.640625 265.238281 311.550781 C 259.488281 319.734375 253.992188 327.082031 248.753906 333.597656 C 243.503906 340.113281 238.042969 346.214844 232.367188 351.890625 C 226.683594 357.570312 220.324219 363.285156 213.28125 369.035156 C 201.277344 378.753906 188.667969 386.222656 175.4375 391.445312 C 162.210938 396.6875 149.722656 399.308594 137.992188 399.308594 C 118.183594 399.308594 108.277344 393.4375 108.277344 381.707031 C 108.277344 377.601562 109.328125 373.980469 111.4375 370.847656 C 113.542969 367.726562 115.992188 365.152344 118.808594 363.113281 C 119.835938 362.339844 120.824219 361.765625 121.769531 361.371094 C 122.730469 360.992188 123.28125 361.054688 123.414062 361.566406 C 123.546875 361.828125 123.226562 362.207031 122.460938 362.71875 C 121.6875 363.21875 120.988281 363.789062 120.355469 364.429688 C 117.410156 366.996094 115.171875 369.546875 113.640625 372.097656 C 112.101562 374.664062 111.335938 377.796875 111.335938 381.507812 C 111.335938 386.351562 113.507812 389.898438 117.851562 392.136719 C 122.195312 394.375 127.9375 395.492188 135.09375 395.492188 C 144.175781 395.492188 152.898438 393.953125 161.257812 390.886719 C 169.628906 387.808594 177.554688 383.910156 185.015625 379.171875 C 192.492188 374.449219 199.304688 369.605469 205.449219 364.628906 C 211.964844 359.378906 217.640625 354.625 222.496094 350.34375 C 227.339844 346.066406 232.003906 341.722656 236.480469 337.316406 C 240.953125 332.90625 245.808594 327.960938 251.058594 322.472656 C 252.0625 321.339844 251.863281 321.148438 250.464844 321.914062 C 243.703125 327.269531 237.089844 332.214844 230.621094 336.753906 C 224.171875 341.296875 217.246094 345.671875 209.859375 349.886719 C 206.015625 352.1875 201.542969 354.425781 196.433594 356.597656 C 191.316406 358.769531 185.917969 360.554688 180.242188 361.960938 C 174.558594 363.359375 168.898438 364.066406 163.261719 364.066406 C 155.867188 364.066406 150.050781 362.429688 145.824219 359.164062 C 141.609375 355.921875 139.183594 351.101562 138.550781 344.71875 C 138.417969 342.414062 138.417969 340.242188 138.550781 338.203125 C 135.105469 337.304688 131.523438 335.421875 127.824219 332.542969 C 124.113281 329.671875 120.980469 325.78125 118.410156 320.863281 C 115.863281 315.925781 114.59375 309.953125 114.59375 302.929688 C 114.59375 292.972656 116.949219 284 121.667969 276.011719 C 126.410156 268.03125 133.023438 261.261719 141.511719 255.707031 C 150.019531 250.136719 159.988281 245.882812 171.425781 242.941406 C 182.851562 240.003906 195.28125 238.53125 208.707031 238.53125 C 216.621094 238.53125 224.1875 238.917969 231.414062 239.683594 C 238.625 240.457031 245.042969 241.351562 250.664062 242.378906 C 257.574219 240.324219 264.253906 238.882812 270.703125 238.070312 C 277.152344 237.238281 282.730469 236.820312 287.453125 236.820312 C 296.535156 236.820312 303.527344 238.101562 308.445312 240.667969 C 313.355469 243.21875 315.691406 246.34375 315.453125 250.046875 Z M 313.347656 250.046875 C 313.585938 247.109375 311.539062 244.617188 307.195312 242.578125 C 302.851562 240.519531 296.46875 239.484375 288.042969 239.484375 C 284.464844 239.484375 280.089844 239.804688 274.914062 240.4375 C 269.730469 241.082031 264.523438 242.296875 259.285156 244.089844 C 262.21875 244.601562 265.414062 245.269531 268.859375 246.097656 C 272.324219 246.9375 275.644531 247.671875 278.828125 248.304688 C 284.070312 249.472656 289.402344 250.65625 294.824219 251.855469 C 300.261719 253.066406 304.382812 253.667969 307.195312 253.667969 C 311.292969 253.667969 313.347656 252.464844 313.347656 250.046875 Z M 242.039062 245.636719 C 237.300781 245.242188 232.308594 244.964844 227.070312 244.78125 C 221.84375 244.585938 215.847656 244.484375 209.070312 244.484375 C 196.300781 244.484375 184.390625 245.738281 173.332031 248.238281 C 162.277344 250.722656 152.550781 254.414062 144.175781 259.328125 C 135.820312 264.246094 129.304688 270.34375 124.632812 277.621094 C 119.976562 284.910156 117.65625 293.34375 117.65625 302.929688 C 117.65625 309.574219 118.839844 315.167969 121.210938 319.710938 C 123.578125 324.234375 126.417969 327.804688 129.730469 330.4375 C 133.0625 333.054688 136.132812 334.804688 138.945312 335.703125 C 140.082031 328.554688 142.828125 321.535156 147.171875 314.640625 C 151.515625 307.730469 156.589844 301.242188 162.40625 295.160156 C 168.214844 289.089844 173.808594 283.875 179.191406 279.53125 C 188.878906 271.75 199.195312 265.042969 210.121094 259.425781 C 221.046875 253.816406 231.683594 249.214844 242.039062 245.636719 Z M 242.039062 245.636719 " fill-opacity="1" fill-rule="nonzero"/><path fill="#000000" d="M 297.210938 349.886719 C 294.027344 352.058594 291.035156 353.882812 288.226562 355.347656 C 285.414062 356.8125 282.929688 357.550781 280.757812 357.550781 C 276.28125 357.550781 274.046875 355.25 274.046875 350.640625 C 274.046875 346.691406 275.796875 342.414062 279.308594 337.808594 C 282.816406 333.203125 287.578125 328.28125 293.589844 323.035156 C 296.003906 320.863281 298.511719 318.609375 301.128906 316.253906 C 303.757812 313.886719 305.996094 311.78125 307.839844 309.9375 C 309.699219 308.078125 310.570312 306.828125 310.441406 306.183594 C 310.324219 305.421875 309.945312 304.917969 309.289062 304.671875 C 308.644531 304.410156 307.625 303.964844 306.226562 303.324219 C 304.582031 302.425781 303.429688 301.59375 302.773438 300.820312 C 300.730469 303.125 298.496094 305.496094 296.058594 307.929688 C 293.640625 310.347656 291.15625 312.824219 288.589844 315.367188 C 285.144531 318.574219 281.367188 322.0625 277.269531 325.832031 C 273.191406 329.605469 269.808594 332.578125 267.136719 334.75 C 266.757812 335.125 266.320312 335.375 265.820312 335.503906 C 265.292969 335.636719 264.898438 335.503906 264.632812 335.109375 C 264.394531 334.738281 264.402344 334.335938 264.667969 333.890625 C 264.914062 333.433594 265.226562 333.070312 265.621094 332.804688 C 268.664062 330.132812 272.113281 327.074219 275.953125 323.625 C 279.789062 320.1875 283.367188 316.863281 286.679688 313.65625 C 289.882812 310.71875 292.6875 308.011719 295.105469 305.527344 C 297.539062 303.027344 299.777344 300.558594 301.816406 298.125 C 301.816406 296.726562 302.515625 295.0625 303.925781 293.15625 C 305.324219 291.246094 307.117188 289.460938 309.289062 287.789062 C 311.082031 286.523438 312.75 285.535156 314.289062 284.828125 C 315.820312 284.128906 317.09375 283.710938 318.105469 283.578125 C 318.5 283.445312 319.167969 283.316406 320.113281 283.183594 C 321.078125 283.050781 322.007812 282.988281 322.910156 282.988281 C 324.820312 282.988281 325.773438 283.25 325.773438 283.777344 C 325.773438 284.15625 324.96875 284.917969 323.371094 286.078125 C 321.792969 287.222656 320.03125 288.34375 318.105469 289.4375 C 316.199219 290.515625 314.792969 291.304688 313.894531 291.804688 C 311.855469 293.082031 309.929688 294.363281 308.136719 295.65625 C 306.359375 296.929688 305.472656 298.074219 305.472656 299.078125 C 305.472656 299.605469 306.105469 300.15625 307.378906 300.722656 C 308.644531 301.300781 309.617188 301.710938 310.273438 301.972656 C 313.84375 303.117188 315.640625 304.902344 315.640625 307.335938 C 315.640625 309.886719 314.667969 312.59375 312.742188 315.464844 C 310.835938 318.34375 308.53125 321.15625 305.832031 323.921875 C 303.152344 326.667969 300.730469 329.054688 298.558594 331.09375 C 294.980469 334.410156 291.855469 337.347656 289.183594 339.914062 C 286.5 342.464844 284.261719 344.816406 282.46875 346.988281 C 280.429688 349.425781 279.410156 351.347656 279.410156 352.746094 C 279.410156 354.023438 280.175781 354.65625 281.710938 354.65625 C 283.488281 354.65625 285.941406 353.734375 289.082031 351.890625 C 292.21875 350.050781 294.808594 348.421875 296.847656 346.988281 C 300.15625 344.578125 303.734375 341.75 307.578125 338.5 C 311.410156 335.234375 314.601562 332.578125 317.152344 330.535156 C 317.546875 330.140625 317.992188 329.828125 318.5 329.582031 C 319.003906 329.320312 319.457031 329.375 319.851562 329.746094 C 320.351562 330.273438 320.34375 330.824219 319.816406 331.390625 C 319.308594 331.96875 318.804688 332.4375 318.304688 332.804688 C 315.359375 335.375 312.003906 338.226562 308.234375 341.363281 C 304.484375 344.480469 300.804688 347.316406 297.210938 349.886719 Z M 297.210938 349.886719 " fill-opacity="1" fill-rule="nonzero"/><path fill="#000000" d="M 388.433594 300.230469 C 382.949219 305.230469 377.683594 310.289062 372.640625 315.398438 C 367.589844 320.492188 363.082031 325.1875 359.117188 329.484375 C 355.167969 333.761719 352.039062 337.304688 349.738281 340.113281 C 347.433594 342.925781 345.441406 345.441406 343.78125 347.679688 C 342.136719 349.917969 341.3125 351.613281 341.3125 352.746094 C 341.3125 353.914062 341.945312 354.492188 343.222656 354.492188 C 344.488281 354.492188 346.183594 353.925781 348.289062 352.78125 C 350.394531 351.621094 352.535156 350.238281 354.707031 348.632812 C 356.878906 347.039062 358.664062 345.730469 360.070312 344.71875 C 363.136719 342.152344 366.363281 339.4375 369.746094 336.558594 C 373.140625 333.6875 376.113281 331.160156 378.660156 328.988281 C 379.1875 328.726562 379.632812 328.511719 380.011719 328.332031 C 380.40625 328.132812 380.785156 328.222656 381.164062 328.59375 C 381.796875 329.234375 381.605469 329.933594 380.601562 330.699219 C 378.800781 332.238281 376.71875 334.039062 374.351562 336.097656 C 372 338.136719 369.710938 340.09375 367.472656 341.953125 C 365.234375 343.796875 363.410156 345.292969 362.011719 346.429688 C 358.933594 348.734375 355.546875 351.167969 351.84375 353.734375 C 348.132812 356.277344 344.808594 357.550781 341.871094 357.550781 C 339.324219 357.550781 337.570312 356.941406 336.609375 355.742188 C 335.636719 354.515625 335.160156 352.945312 335.160156 351.035156 C 335.160156 348.230469 336.378906 344.777344 338.8125 340.671875 C 337.539062 341.945312 336.285156 343.066406 335.0625 344.027344 C 333.851562 345 332.863281 345.796875 332.101562 346.429688 C 329.15625 348.863281 325.699219 351.332031 321.734375 353.832031 C 317.785156 356.308594 314.347656 357.550781 311.402344 357.550781 C 308.992188 357.550781 307.304688 357.007812 306.335938 355.941406 C 305.371094 354.84375 304.886719 353.464844 304.886719 351.792969 C 304.886719 348.59375 306.167969 344.917969 308.734375 340.769531 C 311.285156 336.625 314.726562 332.179688 319.070312 327.441406 C 321.636719 324.769531 324.703125 321.875 328.28125 318.753906 C 331.851562 315.621094 335.464844 312.683594 339.109375 309.9375 C 342.746094 307.171875 345.839844 305.089844 348.386719 303.683594 C 349.785156 302.789062 351.792969 302.15625 354.410156 301.777344 C 357.042969 301.40625 358.992188 301.273438 360.265625 301.382812 C 354.648438 305.988281 349.121094 310.75 343.683594 315.664062 C 338.261719 320.582031 333.464844 325.1875 329.300781 329.484375 C 325.15625 333.761719 321.941406 337.304688 319.660156 340.113281 C 317.359375 342.925781 315.398438 345.441406 313.804688 347.679688 C 312.207031 349.917969 311.402344 351.613281 311.402344 352.746094 C 311.402344 353.914062 311.984375 354.492188 313.144531 354.492188 C 314.421875 354.492188 316.140625 353.925781 318.3125 352.78125 C 320.484375 351.621094 322.722656 350.238281 325.023438 348.632812 C 327.328125 347.039062 329.238281 345.597656 330.75 344.324219 C 332.414062 343.058594 334.484375 341.296875 336.96875 339.058594 C 339.46875 336.820312 341.839844 334.582031 344.078125 332.347656 C 346.316406 330.109375 347.945312 328.480469 348.980469 327.441406 C 351.523438 324.769531 354.582031 321.773438 358.160156 318.460938 C 361.730469 315.128906 365.308594 311.96875 368.890625 308.984375 C 372.460938 305.980469 375.535156 303.710938 378.101562 302.171875 C 379.132812 301.539062 380.785156 301.035156 383.070312 300.65625 C 385.375 300.261719 387.160156 300.121094 388.433594 300.230469 Z M 388.433594 300.230469 " fill-opacity="1" fill-rule="nonzero"/><path fill="#000000" d="M 429.660156 284.730469 C 431.191406 284.730469 431.964844 285.371094 431.964844 286.640625 C 431.964844 287.542969 431.191406 288.925781 429.660156 290.785156 C 428.121094 292.628906 425.628906 294.824219 422.191406 297.367188 C 419.886719 299.035156 417.484375 300.671875 414.984375 302.269531 C 412.5 303.847656 410.550781 305.347656 409.128906 306.746094 C 408.117188 308.042969 407.316406 309.625 406.726562 311.484375 C 406.148438 313.324219 405.746094 315.003906 405.507812 316.519531 C 404.996094 319.464844 404.332031 322.984375 403.5 327.082031 C 402.660156 331.160156 401.03125 335.339844 398.597656 339.617188 C 396.179688 343.894531 392.089844 347.960938 386.324219 351.792969 C 389.785156 350.132812 393.210938 348.238281 396.589844 346.132812 C 399.964844 344.027344 403.1875 341.890625 406.265625 339.71875 C 408.832031 337.941406 411.101562 336.253906 413.078125 334.648438 C 415.050781 333.054688 417.191406 331.226562 419.492188 329.1875 C 420.519531 328.160156 421.285156 328.027344 421.796875 328.792969 C 422.429688 329.300781 422.296875 330 421.402344 330.898438 C 419.230469 332.9375 416.894531 334.929688 414.394531 336.855469 C 411.910156 338.761719 409.523438 340.554688 407.21875 342.21875 C 403.640625 344.769531 400.128906 347.039062 396.6875 349.03125 C 393.242188 351.003906 390.238281 352.5 387.671875 353.503906 C 384.09375 355.042969 380.640625 356.128906 377.308594 356.761719 C 374 357.421875 371.003906 357.75 368.324219 357.75 C 365.386719 357.75 363.027344 357.207031 361.25 356.136719 C 359.457031 355.042969 358.550781 353.207031 358.550781 350.640625 C 358.550781 347.574219 360.65625 343.746094 364.867188 339.15625 C 366.035156 337.867188 367.386719 336.582031 368.917969 335.308594 C 370.429688 334.039062 371.835938 332.890625 373.128906 331.851562 C 375.035156 330.320312 376.8125 329.113281 378.460938 328.234375 C 380.121094 327.335938 381.601562 326.882812 382.902344 326.882812 C 386.71875 323.578125 390.863281 319.933594 395.339844 315.957031 C 399.816406 311.992188 403.269531 308.605469 405.707031 305.789062 C 407.984375 302.984375 410.148438 300.460938 412.1875 298.222656 C 414.246094 295.984375 416.300781 293.976562 418.339844 292.199219 C 420.90625 289.898438 423.113281 288.078125 424.957031 286.738281 C 426.796875 285.40625 428.363281 284.730469 429.660156 284.730469 Z M 404.554688 310.003906 C 401.988281 312.832031 398.878906 315.882812 395.242188 319.152344 C 391.597656 322.398438 387.871094 325.617188 384.054688 328.792969 C 383.789062 329.695312 383.007812 330.816406 381.714844 332.148438 C 380.441406 333.488281 378.597656 334.929688 376.1875 336.460938 C 374.914062 337.363281 373.324219 338.390625 371.417969 339.550781 C 369.492188 340.695312 367.820312 341.773438 366.414062 342.777344 C 364.886719 343.945312 363.578125 345.195312 362.5 346.527344 C 361.40625 347.871094 360.855469 349.242188 360.855469 350.640625 C 360.855469 352.3125 361.4375 353.371094 362.597656 353.832031 C 363.742188 354.277344 364.886719 354.492188 366.019531 354.492188 C 368.964844 354.492188 372.339844 353.339844 376.15625 351.035156 C 379.988281 348.734375 383.765625 345.476562 387.476562 341.261719 C 389.777344 338.828125 392.082031 335.726562 394.386719 331.949219 C 396.6875 328.183594 398.761719 324.316406 400.605469 320.367188 C 402.464844 316.402344 403.78125 312.949219 404.554688 310.003906 Z M 404.554688 310.003906 " fill-opacity="1" fill-rule="nonzero"/><path fill="#000000" d="M 433.847656 323.824219 C 430.664062 326.769531 427.539062 329.960938 424.472656 333.398438 C 421.394531 336.847656 418.84375 340.167969 416.804688 343.371094 C 414.765625 346.554688 413.742188 349.175781 413.742188 351.234375 C 413.742188 353.785156 415.214844 355.050781 418.152344 355.050781 C 420.0625 355.050781 422.480469 354.484375 425.425781 353.339844 C 428.363281 352.179688 431.429688 350.574219 434.640625 348.535156 C 439.222656 345.597656 443.722656 342.308594 448.132812 338.664062 C 452.539062 335.027344 455.960938 332.117188 458.398438 329.945312 C 459.03125 329.308594 459.664062 328.808594 460.304688 328.429688 C 460.941406 328.035156 461.457031 328.035156 461.851562 328.429688 C 462.222656 328.808594 462.246094 329.253906 461.917969 329.777344 C 461.605469 330.289062 461.269531 330.726562 460.898438 331.09375 C 457.691406 334.039062 454.234375 337.011719 450.53125 340.011719 C 446.824219 343.023438 442.867188 345.992188 438.652344 348.929688 C 435.445312 351.101562 431.859375 353.144531 427.894531 355.050781 C 423.945312 356.960938 420.109375 357.914062 416.410156 357.914062 C 414.128906 357.914062 411.933594 357.339844 409.828125 356.203125 C 407.707031 355.066406 406.636719 352.640625 406.636719 348.929688 C 406.636719 346.363281 407.605469 342.792969 409.53125 338.203125 C 411.441406 333.597656 415.472656 328.355469 421.609375 322.472656 C 425.953125 318.394531 430.675781 314.632812 435.792969 311.1875 C 440.898438 307.722656 445.84375 304.902344 450.632812 302.730469 C 455.410156 300.558594 459.335938 299.472656 462.414062 299.472656 C 464.335938 299.472656 465.777344 299.925781 466.722656 300.820312 C 467.683594 301.726562 468.171875 302.878906 468.171875 304.277344 C 468.171875 306.316406 467.152344 308.523438 465.109375 310.890625 C 463.070312 313.242188 460.699219 315.316406 458.003906 317.109375 C 454.949219 319.152344 451.503906 320.910156 447.671875 322.375 C 443.828125 323.847656 440.4375 324.578125 437.503906 324.578125 C 436.09375 324.578125 434.878906 324.332031 433.847656 323.824219 Z M 435.199219 322.472656 C 435.726562 322.738281 436.234375 322.867188 436.746094 322.867188 C 438.652344 322.867188 441.425781 322.105469 445.070312 320.566406 C 448.707031 319.035156 452.316406 316.796875 455.898438 313.851562 C 458.59375 311.679688 460.765625 309.609375 462.414062 307.632812 C 464.074219 305.640625 464.914062 304.070312 464.914062 302.929688 C 464.914062 302.164062 464.460938 301.777344 463.5625 301.777344 C 462.289062 301.777344 459.917969 302.894531 456.457031 305.132812 C 453.007812 307.371094 449.332031 310.09375 445.433594 313.292969 C 441.550781 316.476562 438.136719 319.539062 435.199219 322.472656 Z M 435.199219 322.472656 " fill-opacity="1" fill-rule="nonzero"/><path fill="#000000" d="M 473.710938 323.824219 C 470.527344 326.769531 467.402344 329.960938 464.332031 333.398438 C 461.253906 336.847656 458.703125 340.167969 456.664062 343.371094 C 454.625 346.554688 453.605469 349.175781 453.605469 351.234375 C 453.605469 353.785156 455.078125 355.050781 458.015625 355.050781 C 459.921875 355.050781 462.339844 354.484375 465.285156 353.339844 C 468.222656 352.179688 471.292969 350.574219 474.5 348.535156 C 479.082031 345.597656 483.582031 342.308594 487.992188 338.664062 C 492.402344 335.027344 495.824219 332.117188 498.257812 329.945312 C 498.890625 329.308594 499.523438 328.808594 500.167969 328.429688 C 500.800781 328.035156 501.320312 328.035156 501.714844 328.429688 C 502.082031 328.808594 502.109375 329.253906 501.777344 329.777344 C 501.464844 330.289062 501.128906 330.726562 500.757812 331.09375 C 497.550781 334.039062 494.09375 337.011719 490.394531 340.011719 C 486.683594 343.023438 482.726562 345.992188 478.515625 348.929688 C 475.304688 351.101562 471.71875 353.144531 467.753906 355.050781 C 463.804688 356.960938 459.972656 357.914062 456.269531 357.914062 C 453.992188 357.914062 451.792969 357.339844 449.6875 356.203125 C 447.566406 355.066406 446.496094 352.640625 446.496094 348.929688 C 446.496094 346.363281 447.46875 342.792969 449.390625 338.203125 C 451.300781 333.597656 455.332031 328.355469 461.46875 322.472656 C 465.8125 318.394531 470.535156 314.632812 475.652344 311.1875 C 480.761719 307.722656 485.703125 304.902344 490.492188 302.730469 C 495.273438 300.558594 499.195312 299.472656 502.273438 299.472656 C 504.199219 299.472656 505.636719 299.925781 506.582031 300.820312 C 507.546875 301.726562 508.03125 302.878906 508.03125 304.277344 C 508.03125 306.316406 507.011719 308.523438 504.972656 310.890625 C 502.929688 313.242188 500.5625 315.316406 497.863281 317.109375 C 494.8125 319.152344 491.363281 320.910156 487.53125 322.375 C 483.6875 323.847656 480.300781 324.578125 477.363281 324.578125 C 475.957031 324.578125 474.738281 324.332031 473.710938 323.824219 Z M 475.058594 322.472656 C 475.585938 322.738281 476.097656 322.867188 476.605469 322.867188 C 478.515625 322.867188 481.285156 322.105469 484.929688 320.566406 C 488.566406 319.035156 492.179688 316.796875 495.757812 313.851562 C 498.457031 311.679688 500.628906 309.609375 502.273438 307.632812 C 503.933594 305.640625 504.773438 304.070312 504.773438 302.929688 C 504.773438 302.164062 504.320312 301.777344 503.425781 301.777344 C 502.148438 301.777344 499.78125 302.894531 496.316406 305.132812 C 492.871094 307.371094 489.191406 310.09375 485.292969 313.292969 C 481.410156 316.476562 477.996094 319.539062 475.058594 322.472656 Z M 510.894531 293.550781 C 510.894531 294.058594 510.574219 294.304688 509.941406 294.304688 C 509.167969 294.304688 507.917969 293.574219 506.1875 292.101562 C 504.476562 290.636719 502.882812 288.746094 501.417969 286.441406 C 499.945312 284.136719 499.148438 281.785156 499.015625 279.367188 C 498.769531 275.796875 500.117188 274.003906 503.0625 274.003906 C 505.734375 274.003906 507.078125 275.976562 507.078125 279.925781 C 506.945312 283.503906 507.160156 286.160156 507.734375 287.890625 C 508.304688 289.601562 509.035156 291.039062 509.941406 292.199219 C 510.203125 292.445312 510.417969 292.660156 510.597656 292.859375 C 510.796875 293.054688 510.894531 293.285156 510.894531 293.550781 Z M 510.894531 293.550781 " fill-opacity="1" fill-rule="nonzero"/><path fill="#000000" d="M 229.152344 394.496094 L 231.453125 394.496094 L 231.453125 409.140625 C 231.453125 410.390625 231.398438 411.269531 231.289062 411.773438 C 231.027344 412.980469 230.402344 413.96875 229.414062 414.734375 C 228.441406 415.507812 227.273438 415.886719 225.894531 415.886719 C 224.089844 415.886719 222.378906 415.277344 220.757812 414.042969 L 222.074219 412.332031 C 223.261719 413.300781 224.488281 413.78125 225.761719 413.78125 C 226.527344 413.78125 227.183594 413.605469 227.734375 413.253906 C 228.277344 412.882812 228.671875 412.355469 228.921875 411.671875 C 229.070312 411.214844 229.152344 410.375 229.152344 409.140625 Z M 229.152344 394.496094 " fill-opacity="1" fill-rule="nonzero"/><path fill="#000000" d="M 243.867188 394.496094 L 255.515625 394.496094 L 255.515625 396.570312 L 246.203125 396.570312 L 246.203125 403.808594 L 254.167969 403.808594 L 254.167969 405.882812 L 246.203125 405.882812 L 246.203125 413.515625 L 255.515625 413.515625 L 255.515625 415.589844 L 243.867188 415.589844 Z M 243.867188 394.496094 " fill-opacity="1" fill-rule="nonzero"/><path fill="#000000" d="M 268.234375 394.496094 L 271.820312 411.507812 L 275.011719 400.914062 L 277.21875 400.914062 L 280.410156 411.507812 L 283.996094 394.496094 L 286.398438 394.496094 L 281.757812 415.589844 L 279.488281 415.589844 L 276.097656 404.238281 L 272.742188 415.589844 L 270.472656 415.589844 L 265.832031 394.496094 Z M 268.234375 394.496094 " fill-opacity="1" fill-rule="nonzero"/><path fill="#000000" d="M 297.308594 394.496094 L 308.957031 394.496094 L 308.957031 396.570312 L 299.644531 396.570312 L 299.644531 403.808594 L 307.609375 403.808594 L 307.609375 405.882812 L 299.644531 405.882812 L 299.644531 413.515625 L 308.957031 413.515625 L 308.957031 415.589844 L 297.308594 415.589844 Z M 297.308594 394.496094 " fill-opacity="1" fill-rule="nonzero"/><path fill="#000000" d="M 321.050781 394.496094 L 323.386719 394.496094 L 323.386719 413.515625 L 331.777344 413.515625 L 331.777344 415.589844 L 321.050781 415.589844 Z M 321.050781 394.496094 " fill-opacity="1" fill-rule="nonzero"/><path fill="#000000" d="M 347.875 394.496094 C 348.574219 394.496094 349.09375 394.511719 349.421875 394.53125 C 349.75 394.53125 350.128906 394.578125 350.574219 394.660156 C 351.035156 394.75 351.480469 394.882812 351.921875 395.054688 C 353.042969 395.515625 353.929688 396.273438 354.589844 397.328125 C 355.261719 398.363281 355.609375 399.554688 355.609375 400.914062 C 355.609375 402.277344 355.261719 403.480469 354.589844 404.53125 C 353.90625 405.585938 352.992188 406.335938 351.855469 406.769531 L 356.003906 415.589844 L 353.46875 415.589844 L 349.683594 407.296875 L 345.339844 407.296875 L 345.339844 415.589844 L 343.003906 415.589844 L 343.003906 394.496094 Z M 347.875 396.570312 L 345.339844 396.570312 L 345.339844 405.222656 L 347.875 405.222656 C 348.417969 405.222656 348.828125 405.222656 349.09375 405.222656 C 349.355469 405.207031 349.660156 405.175781 350.015625 405.125 C 350.359375 405.058594 350.671875 404.976562 350.9375 404.863281 C 351.371094 404.6875 351.757812 404.433594 352.085938 404.105469 C 352.417969 403.777344 352.65625 403.429688 352.8125 403.050781 C 352.984375 402.683594 353.109375 402.320312 353.171875 401.964844 C 353.253906 401.621094 353.304688 401.265625 353.304688 400.914062 C 353.304688 400.566406 353.253906 400.214844 353.171875 399.859375 C 353.109375 399.515625 352.984375 399.152344 352.8125 398.773438 C 352.65625 398.378906 352.417969 398.035156 352.085938 397.722656 C 351.757812 397.390625 351.371094 397.128906 350.9375 396.933594 C 350.671875 396.824219 350.359375 396.75 350.015625 396.703125 C 349.660156 396.636719 349.355469 396.601562 349.09375 396.601562 C 348.828125 396.585938 348.417969 396.570312 347.875 396.570312 Z M 347.875 396.570312 " fill-opacity="1" fill-rule="nonzero"/><path fill="#000000" d="M 365.285156 394.496094 L 367.820312 394.496094 L 372.753906 405.585938 L 377.691406 394.496094 L 380.222656 394.496094 L 373.90625 408.054688 L 373.90625 415.589844 L 371.601562 415.589844 L 371.601562 408.054688 Z M 365.285156 394.496094 " fill-opacity="1" fill-rule="nonzero"/></svg>