<?xml version="1.0" encoding="UTF-8" standalone="no"?>
<!-- Created with Inkscape (http://www.inkscape.org/) -->

<svg
   version="1.1"
   id="svg2"
   width="1298.6667"
   height="1333.3333"
   viewBox="0 0 1298.6667 1333.3333"
   sodipodi:docname="nano-pics.ai"
   inkscape:version="1.2 (dc2aedaf03, 2022-05-15)"
   xmlns:inkscape="http://www.inkscape.org/namespaces/inkscape"
   xmlns:sodipodi="http://sodipodi.sourceforge.net/DTD/sodipodi-0.dtd"
   xmlns="http://www.w3.org/2000/svg"
   xmlns:svg="http://www.w3.org/2000/svg">
  <defs
     id="defs6">
    <clipPath
       clipPathUnits="userSpaceOnUse"
       id="clipPath20">
      <path
         d="M 0,1000 H 974 V 0 H 0 Z"
         id="path18" />
    </clipPath>
  </defs>
  <sodipodi:namedview
     id="namedview4"
     pagecolor="#ffffff"
     bordercolor="#000000"
     borderopacity="0.25"
     inkscape:showpageshadow="2"
     inkscape:pageopacity="0.0"
     inkscape:pagecheckerboard="0"
     inkscape:deskcolor="#d1d1d1"
     showgrid="false"
     inkscape:zoom="0.77025007"
     inkscape:cx="382.9925"
     inkscape:cy="666.01746"
     inkscape:window-width="2560"
     inkscape:window-height="1377"
     inkscape:window-x="-8"
     inkscape:window-y="-8"
     inkscape:window-maximized="1"
     inkscape:current-layer="g10">
    <inkscape:page
       x="0"
       y="0"
       id="page8"
       width="1298.6667"
       height="1333.3333"
       inkscape:export-filename="Seite 1.png"
       inkscape:export-xdpi="96"
       inkscape:export-ydpi="96" />
  </sodipodi:namedview>
  <g
     id="g10"
     inkscape:groupmode="layer"
     inkscape:label="Page 1"
     transform="matrix(1.3333333,0,0,-1.3333333,0,1333.3333)">
    <g
       id="g14"
       style="fill:#ffd700;stroke:#ffd700;fill-opacity:1;stroke-opacity:1">
      <g
         id="g16"
         clip-path="url(#clipPath20)"
         style="fill:#ffd700;stroke:#ffd700;fill-opacity:1;stroke-opacity:1">
        <g
           id="g22"
           transform="translate(275.1786,362.2294)"
           style="fill:#ffd700;stroke:#ffd700;fill-opacity:1;stroke-opacity:1">
          <path
             d="m 0,0 v -61.057 h 19.245 c 8.394,0 15.575,2.983 21.543,8.95 5.967,5.966 8.95,13.17 8.95,21.613 0,8.444 -2.983,15.636 -8.95,21.58 C 34.82,-2.971 27.639,0 19.245,0 Z m 0,-67.495 v -39.267 H -6.367 V 6.439 h 29.715 c 8.631,-1.18 15.965,-4.788 22.003,-10.825 7.217,-7.217 10.825,-15.919 10.825,-26.108 0,-10.235 -3.608,-18.96 -10.825,-26.177 -7.216,-7.216 -15.919,-10.824 -26.106,-10.824 z"
             style="fill:#ffd700;fill-opacity:1;fill-rule:nonzero;stroke:#ffd700;stroke-opacity:1"
             id="path24" />
        </g>
        <path
           d="m 405.804,255.467 h -6.368 v 113.201 h 6.368 z"
           style="fill:#ffd700;fill-opacity:1;fill-rule:nonzero;stroke:#ffd700;stroke-opacity:1"
           id="path26" />
        <g
           id="g28"
           transform="translate(570.9559,273.5079)"
           style="fill:#ffd700;stroke:#ffd700;fill-opacity:1;stroke-opacity:1">
          <path
             d="m 0,0 4.811,-4.314 c -11.038,-10.047 -24.032,-15.071 -38.984,-15.071 -16.037,0 -29.704,5.649 -41,16.945 -11.296,11.295 -16.945,24.963 -16.945,40.999 0,15.991 5.649,29.646 16.945,40.966 11.296,11.319 24.963,16.98 41,16.98 14.952,0 27.946,-5.024 38.984,-15.071 L 0,77.048 c -9.718,8.632 -21.108,12.948 -34.173,12.948 -14.197,0 -26.319,-5.024 -36.365,-15.071 -10.047,-10.047 -15.071,-22.168 -15.071,-36.366 0,-14.244 5.024,-26.389 15.071,-36.436 10.046,-10.047 22.168,-15.069 36.365,-15.069 C -21.108,-12.946 -9.718,-8.63 0,0"
             style="fill:#ffd700;fill-opacity:1;fill-rule:nonzero;stroke:#ffd700;stroke-opacity:1"
             id="path30" />
        </g>
        <g
           id="g32"
           transform="translate(673.7761,318.1527)"
           style="fill:#ffd700;stroke:#ffd700;fill-opacity:1;stroke-opacity:1">
          <path
             d="m 0,0 c -8.065,2.688 -14.434,6.367 -19.103,11.037 -4.669,4.669 -7.004,10.33 -7.004,16.98 0,6.509 2.335,12.109 7.004,16.803 4.669,4.692 10.329,7.04 16.98,7.04 6.603,0 12.263,-2.334 16.981,-7.005 2.593,-2.5 4.386,-5.306 5.376,-8.419 l -5.73,-2.265 c -0.849,2.312 -2.241,4.435 -4.175,6.369 -3.443,3.395 -7.594,5.093 -12.452,5.093 -4.858,0 -9.009,-1.71 -12.452,-5.129 -3.443,-3.42 -5.165,-7.582 -5.165,-12.487 0,-4.859 1.722,-9.01 5.165,-12.453 3.207,-3.159 7.641,-6.06 13.301,-8.702 9.056,-2.924 16.673,-7.475 22.852,-13.654 6.556,-6.509 9.835,-14.386 9.835,-23.632 0,-9.292 -3.279,-17.215 -9.835,-23.771 -6.556,-6.557 -14.457,-9.835 -23.701,-9.835 -9.245,0 -17.146,3.301 -23.701,9.905 -5.235,5.236 -8.373,11.32 -9.41,18.254 l 6.013,2.193 c 0.66,-6.133 3.278,-11.485 7.854,-16.059 5.329,-5.331 11.744,-7.996 19.244,-7.996 7.546,0 13.985,2.665 19.315,7.996 5.33,5.329 7.995,11.766 7.995,19.313 0,7.501 -2.665,13.915 -7.995,19.246 C 12.522,-6.509 6.792,-2.785 0,0"
             style="fill:#ffd700;fill-opacity:1;fill-rule:nonzero;stroke:#ffd700;stroke-opacity:1"
             id="path34" />
        </g>
        <g
           id="g36"
           transform="translate(106.7938,632.5284)"
           style="fill:#ffd700;stroke:#ffd700;fill-opacity:1;stroke-opacity:1">
          <path
             d="M 0,0 H 13.866 L 129,-199.312 V 0 h 12.606 V -224.104 H 129 L 12.606,-22.83 V -224.104 H 0 Z"
             style="fill:#ffd700;fill-opacity:1;fill-rule:nonzero;stroke:#ffd700;stroke-opacity:1"
             id="path38" />
        </g>
        <g
           id="g40"
           transform="translate(359.8974,637.7056)"
           style="fill:#ffd700;stroke:#ffd700;fill-opacity:1;stroke-opacity:1">
          <path
             d="m 0,0 -83.485,-229.277 h 13.44 l 28.677,78.817 2.561,7.045 L 0,-36.826 l 38.793,-106.589 2.164,-5.942 29.074,-79.92 H 83.33 Z"
             style="fill:#ffd700;fill-opacity:1;fill-rule:nonzero;stroke:#ffd700;stroke-opacity:1"
             id="path42" />
        </g>
        <g
           id="g44"
           transform="translate(471.2431,632.5284)"
           style="fill:#ffd700;stroke:#ffd700;fill-opacity:1;stroke-opacity:1">
          <path
             d="M 0,0 H 13.866 L 129,-199.312 V 0 h 12.606 V -224.104 H 129 L 12.606,-22.83 V -224.104 H 0 Z"
             style="fill:#ffd700;fill-opacity:1;fill-rule:nonzero;stroke:#ffd700;stroke-opacity:1"
             id="path46" />
        </g>
        <g
           id="g48"
           transform="translate(766.3606,622.8641)"
           style="fill:#ffd700;stroke:#ffd700;fill-opacity:1;stroke-opacity:1">
          <path
             d="m 0,0 c -28.201,0 -52.268,-9.968 -72.203,-29.904 -19.938,-19.937 -29.905,-44.004 -29.905,-72.204 0,-28.2 9.967,-52.292 29.905,-72.273 19.935,-19.983 44.002,-29.974 72.203,-29.974 28.199,0 52.266,9.991 72.203,29.974 19.936,19.981 29.905,44.073 29.905,72.273 0,28.2 -9.969,52.267 -29.905,72.204 C 52.266,-9.968 28.199,0 0,0 m 81.308,-20.799 c 22.456,-22.459 33.685,-49.561 33.685,-81.309 0,-31.748 -11.229,-58.851 -33.685,-81.307 C 58.85,-205.873 31.747,-217.1 0,-217.1 c -31.749,0 -58.852,11.227 -81.308,33.685 -22.458,22.456 -33.685,49.559 -33.685,81.307 0,31.748 11.227,58.85 33.685,81.309 22.456,22.456 49.559,33.685 81.308,33.685 31.747,0 58.85,-11.229 81.308,-33.685"
             style="fill:#ffd700;fill-opacity:1;fill-rule:nonzero;stroke:#ffd700;stroke-opacity:1"
             id="path50" />
        </g>
        <g
           id="g52"
           transform="translate(783.2516,616.1965)"
           style="fill:#ffd700;stroke:#ffd700;fill-opacity:1;stroke-opacity:1">
          <path
             d="m 0,0 c -22.636,-22.598 -45.209,-45.132 -67.801,-67.685 -0.014,0.282 -0.048,0.649 -0.048,1.016 -0.003,17.565 0.003,35.13 -0.019,52.695 -0.001,0.777 0.264,1.182 0.916,1.574 11.14,6.695 23.121,11.01 35.989,12.897 10.078,1.478 20.128,1.32 30.17,-0.289 C -0.55,0.17 -0.316,0.084 0,0"
             style="fill:#ffd700;fill-opacity:1;fill-rule:nonzero;stroke:#ffd700;stroke-opacity:1"
             id="path54" />
        </g>
        <g
           id="g56"
           transform="translate(861.5781,503.9306)"
           style="fill:#ffd700;stroke:#ffd700;fill-opacity:1;stroke-opacity:1">
          <path
             d="m 0,0 c -22.42,22.613 -44.84,45.227 -67.26,67.84 -0.093,-0.054 -0.187,-0.109 -0.28,-0.163 0.292,0.022 0.585,0.063 0.877,0.063 17.678,0.002 35.355,-0.002 53.032,0.017 0.687,10e-4 1.074,-0.196 1.431,-0.793 C -5.761,56.219 -1.496,44.688 0.497,32.311 1.717,24.739 2.045,17.132 1.467,9.494 1.23,6.371 0.766,3.266 0.406,0.153 0.27,0.102 0.135,0.051 0,0"
             style="fill:#ffd700;fill-opacity:1;fill-rule:nonzero;stroke:#ffd700;stroke-opacity:1"
             id="path58" />
        </g>
        <g
           id="g60"
           transform="translate(821.8459,441.4774)"
           style="fill:#ffd700;stroke:#ffd700;fill-opacity:1;stroke-opacity:1">
          <path
             d="M 0,0 V 94.433 C 0.225,94.251 0.442,94.107 0.623,93.926 13.076,81.477 25.522,69.022 37.99,56.588 c 0.501,-0.5 0.598,-0.945 0.427,-1.583 C 32.335,32.352 19.782,14.153 0.831,0.352 0.66,0.228 0.482,0.111 0.299,0.004 0.25,-0.024 0.169,0 0,0"
             style="fill:#ffd700;fill-opacity:1;fill-rule:nonzero;stroke:#ffd700;stroke-opacity:1"
             id="path62" />
        </g>
        <g
           id="g64"
           transform="translate(816.3817,491.8674)"
           style="fill:#ffd700;stroke:#ffd700;fill-opacity:1;stroke-opacity:1">
          <path
             d="m 0,0 v -1.451 c -0.001,-17.176 -0.009,-34.353 0.019,-51.53 0.002,-0.89 -0.257,-1.382 -1.033,-1.831 -10.455,-6.049 -21.612,-10.102 -33.551,-12.02 -8.35,-1.342 -16.726,-1.576 -25.133,-0.768 -2.375,0.229 -4.736,0.618 -7.344,0.965 C -44.548,-44.277 -22.25,-22.115 0,0"
             style="fill:#ffd700;fill-opacity:1;fill-rule:nonzero;stroke:#ffd700;stroke-opacity:1"
             id="path66" />
        </g>
        <g
           id="g68"
           transform="translate(670.8138,537.7102)"
           style="fill:#ffd700;stroke:#ffd700;fill-opacity:1;stroke-opacity:1">
          <path
             d="m 0,0 c 22.505,-22.425 44.777,-44.616 67.185,-66.944 -0.482,-0.033 -0.779,-0.07 -1.075,-0.07 -17.565,-0.003 -35.131,0.002 -52.696,-0.02 -0.734,-10e-4 -1.117,0.239 -1.481,0.864 C 5.58,-55.254 1.44,-43.571 -0.388,-31.064 -1.543,-23.157 -1.713,-15.235 -0.949,-7.291 -0.724,-4.947 -0.345,-2.617 0,0"
             style="fill:#ffd700;fill-opacity:1;fill-rule:nonzero;stroke:#ffd700;stroke-opacity:1"
             id="path70" />
        </g>
        <g
           id="g72"
           transform="translate(686.9666,465.155)"
           style="fill:#ffd700;stroke:#ffd700;fill-opacity:1;stroke-opacity:1">
          <path
             d="m 0,0 h 94.384 c -0.24,-0.292 -0.389,-0.507 -0.571,-0.689 -12.397,-12.402 -24.8,-24.799 -37.185,-37.213 -0.465,-0.466 -0.878,-0.573 -1.493,-0.41 C 35.972,-33.22 19.776,-23.298 6.641,-8.441 4.491,-6.009 2.57,-3.376 0.548,-0.833 0.378,-0.619 0.245,-0.375 0,0"
             style="fill:#ffd700;fill-opacity:1;fill-rule:nonzero;stroke:#ffd700;stroke-opacity:1"
             id="path74" />
        </g>
        <g
           id="g76"
           transform="translate(709.8353,599.5019)"
           style="fill:#ffd700;stroke:#ffd700;fill-opacity:1;stroke-opacity:1">
          <path
             d="m 0,0 v -92.942 c -0.365,0.334 -0.623,0.553 -0.862,0.792 -11.997,11.996 -23.991,23.997 -35.997,35.984 -0.485,0.485 -0.753,0.904 -0.555,1.643 5.98,22.26 18.206,40.272 36.69,54.038 0.193,0.144 0.4,0.269 0.724,0.485"
             style="fill:#ffd700;fill-opacity:1;fill-rule:nonzero;stroke:#ffd700;stroke-opacity:1"
             id="path78" />
        </g>
        <g
           id="g80"
           transform="translate(752.1729,577.2482)"
           style="fill:#ffd700;stroke:#ffd700;fill-opacity:1;stroke-opacity:1">
          <path
             d="m 0,0 c 2.634,2.612 5.095,5.036 7.539,7.478 9.751,9.743 19.504,19.485 29.229,29.254 0.659,0.661 1.214,0.824 2.123,0.576 C 60.91,31.311 78.703,19.127 92.362,0.87 92.545,0.625 92.701,0.36 92.938,0 Z"
             style="fill:#ffd700;fill-opacity:1;fill-rule:nonzero;stroke:#ffd700;stroke-opacity:1"
             id="path82" />
        </g>
        <g
           id="g84"
           transform="translate(488.7992,925.6932)"
           style="fill:#ffd700;stroke:#ffd700;fill-opacity:1;stroke-opacity:1">
          <path
             d="m 0,0 c -238.346,0 -432.254,-193.909 -432.254,-432.254 0,-238.345 193.908,-432.253 432.254,-432.253 238.346,0 432.254,193.908 432.254,432.253 C 432.254,-193.909 238.346,0 0,0 m 0,-870.167 c -116.971,0 -226.941,45.551 -309.651,128.262 -82.712,82.711 -128.262,192.68 -128.262,309.651 0,116.971 45.55,226.94 128.262,309.652 82.71,82.711 192.68,128.261 309.651,128.261 116.971,0 226.941,-45.55 309.651,-128.261 82.712,-82.712 128.263,-192.681 128.263,-309.652 0,-116.971 -45.551,-226.94 -128.263,-309.651 C 226.941,-824.616 116.971,-870.167 0,-870.167"
             style="fill:#ffd700;fill-opacity:1;fill-rule:nonzero;stroke:#ffd700;stroke-opacity:1"
             id="path86" />
        </g>
        <g
           id="g88"
           transform="translate(499.5426,938.8143)"
           style="fill:#ffd700;stroke:#ffd700;fill-opacity:1;stroke-opacity:1">
          <path
             d="m 0,0 c -238.346,0 -432.254,-193.909 -432.254,-432.255 0,-238.345 193.908,-432.254 432.254,-432.254 238.346,0 432.254,193.909 432.254,432.254 C 432.254,-193.909 238.346,0 0,0 m 0,-870.168 c -116.971,0 -226.941,45.55 -309.651,128.262 -82.712,82.711 -128.262,192.68 -128.262,309.651 0,116.971 45.55,226.941 128.262,309.653 82.71,82.709 192.68,128.261 309.651,128.261 116.971,0 226.941,-45.552 309.651,-128.261 82.712,-82.712 128.262,-192.682 128.262,-309.653 0,-116.971 -45.55,-226.94 -128.262,-309.651 C 226.941,-824.618 116.971,-870.168 0,-870.168"
             style="fill:#ffd700;fill-opacity:1;fill-rule:nonzero;stroke:#ffd700;stroke-opacity:1"
             id="path90" />
        </g>
        <g
           id="g92"
           transform="translate(474.4567,938.8143)"
           style="fill:#ffd700;stroke:#ffd700;fill-opacity:1;stroke-opacity:1">
          <path
             d="m 0,0 c -238.345,0 -432.254,-193.909 -432.254,-432.255 0,-238.345 193.909,-432.254 432.254,-432.254 238.346,0 432.254,193.909 432.254,432.254 C 432.254,-193.909 238.346,0 0,0 m 0,-870.168 c -116.971,0 -226.94,45.55 -309.651,128.262 -82.711,82.711 -128.262,192.68 -128.262,309.651 0,116.971 45.551,226.941 128.262,309.653 C -226.94,-39.893 -116.971,5.659 0,5.659 c 116.971,0 226.941,-45.552 309.651,-128.261 82.712,-82.712 128.263,-192.682 128.263,-309.653 0,-116.971 -45.551,-226.94 -128.263,-309.651 C 226.941,-824.618 116.971,-870.168 0,-870.168"
             style="fill:#ffd700;fill-opacity:1;fill-rule:nonzero;stroke:#ffd700;stroke-opacity:1"
             id="path94" />
        </g>
      </g>
    </g>
  </g>
</svg>
