<?xml version="1.0" encoding="UTF-8"?>
<!DOCTYPE svg PUBLIC "-//W3C//DTD SVG 1.1//EN" "http://www.w3.org/Graphics/SVG/1.1/DTD/svg11.dtd">
<!-- Creator: CorelDRAW -->
<svg xmlns="http://www.w3.org/2000/svg" xml:space="preserve" width="297mm" height="210mm" version="1.1" style="shape-rendering:geometricPrecision; text-rendering:geometricPrecision; image-rendering:optimizeQuality; fill-rule:evenodd; clip-rule:evenodd"
viewBox="0 0 29700 21000"
 xmlns:xlink="http://www.w3.org/1999/xlink"
 xmlns:xodm="http://www.corel.com/coreldraw/odm/2003">
 <defs>
  <style type="text/css">
   <![CDATA[
    .fil0 {fill:#234053}
    .fil1 {fill:#234053;fill-rule:nonzero}
   ]]>
  </style>
 </defs>
 <g id="Ebene_x0020_1">
  <metadata id="CorelCorpID_0Corel-Layer"/>
  <g id="_1717032767536">
   <path class="fil0" d="M17037.21 9682.42c147.07,-39.8 364.02,139.62 472.25,366.98 60.16,126.42 36.98,290.02 -1.47,405.72 -57.94,174.39 -211.38,45.64 -134.64,-119.02 61.66,-132.23 -63.88,-417.82 -257.82,-470.23 -121.43,-32.83 -225.38,-143.66 -78.32,-183.45zm-707.75 415.72c134.72,-99.48 254.18,-169.54 269.64,-368.26 9.58,-123.69 -35.99,-481.54 -72.3,-597.87 -147.5,-472.68 -592.97,-24.28 -699.33,223.25 -328.78,765.34 179.97,1543.86 529.36,1924.38 121.63,132.46 518.48,466.82 787.62,515 260.11,46.55 869.17,-171.51 499.81,-563.38 -515.24,-546.65 -617.33,-17.13 -875.86,-226.57 -153.71,-124.52 -464.14,-588.41 -438.94,-906.55zm422.36 -1948.98c821.2,0 1533.07,468.28 1883.05,1152.42l0 0.04c-145.88,96.87 -240.89,140.26 -404.61,219.25 -125.11,53.88 -238.32,144.1 -367.11,93.55 -150.38,-59.01 -431.02,-418.45 -613.05,-246.07 66.29,126.77 375.92,202.72 520.02,565.63 212.73,535.69 -42.99,655.94 -76.85,814.2 188.91,181.48 734.49,362.6 896.15,560.09 -363.79,638.18 -1050.42,1068.5 -1837.6,1068.5 -1167.41,0 -2113.8,-946.39 -2113.8,-2113.81 0,-1167.42 946.39,-2113.8 2113.8,-2113.8z"/>
   <path class="fil0" d="M3235.78 8192.35c1167.45,0 2113.8,946.35 2113.8,2113.8 0,786.95 -430.04,1473.42 -1067.94,1837.28 -512.83,242.79 -1006.86,49.92 -944.37,-906.63 168.39,-61.19 267.83,-41.65 511.84,-245.68 954.54,-798.09 594.15,-2306.95 -260.94,-2047.82 -195.48,59.21 -227.6,294.32 -68.31,402.98 222.69,151.93 335.38,-77.25 505.15,-137.25 225.34,415.52 240.57,598.66 49.8,1098.35 -345.71,905.53 -1393.32,777.37 -1714.58,29.55 -202.95,-472.44 -202.32,-759.69 73.77,-1083.05 6.73,5.22 14.4,14 18.28,17.84 464.13,457.81 753.99,-194.69 365.52,-293.34 -357.38,-90.78 -706.64,260.27 -765.03,565.67 -97.74,511.64 129.43,1157.97 566.82,1472.9 251.81,181.32 293.62,149.36 471.45,219.85 -39.08,345.79 9.26,786.03 264.15,1021.62 43.23,39.95 62.5,46.95 117.04,83.89 85.4,57.83 85.32,9.93 81.25,52.53l-0.12 1.31c-103.59,15.58 -209.64,23.77 -317.58,23.77 -1167.42,0 -2113.77,-946.35 -2113.77,-2113.77 0,-1167.45 946.35,-2113.8 2113.77,-2113.8z"/>
   <path class="fil1" d="M5667.28 8315.09l1500 0c197.1,0 384.15,19.82 561.12,59.41 177.05,39.63 332.14,105.65 465.36,198.05 133.22,92.44 239.03,216.92 317.51,373.52 78.48,156.55 117.67,351.76 117.67,585.64 0,282.98 -71.15,523.47 -213.47,721.52 -142.36,198.05 -350.34,323.48 -624.06,376.28l985.39 1692 -1023.76 0 -810.2 -1601.45 -421.53 0 0 1601.45 -854.03 0 0 -4006.42zm854.03 1658.01l503.65 0c76.66,0 157.86,-2.8 243.62,-8.46 85.75,-5.66 163.32,-22.67 232.66,-50.95 69.34,-28.28 126.85,-72.62 172.46,-132.98 45.6,-60.36 68.43,-145.25 68.43,-254.65 0,-101.86 -20.1,-182.94 -60.24,-243.3 -40.15,-60.37 -91.22,-106.6 -153.28,-138.64 -62.06,-32.08 -133.22,-53.76 -213.52,-65.11 -80.25,-11.31 -158.77,-16.97 -235.39,-16.97l-558.39 0 0 911.06zm2693.4 -1658.01l1281.02 0c310.23,0 604.91,35.83 884.09,107.51 279.21,71.67 522.83,187.69 730.85,348.04 208.02,160.32 373.16,368.73 495.42,625.28 122.27,256.51 183.42,567.77 183.42,933.69 0,324.43 -59.33,610.21 -177.96,857.31 -118.58,247.1 -278.27,454.6 -478.97,622.47 -200.74,167.87 -432.49,295.2 -695.25,381.98 -262.76,86.75 -538.34,130.14 -826.65,130.14l-1395.97 0 0 -4006.42zm853.99 3191.55l443.45 0c197.06,0 380.47,-20.73 550.16,-62.26 169.73,-41.49 316.64,-110.32 440.68,-206.51 124.08,-96.2 221.71,-222.58 292.9,-379.18 71.16,-156.55 106.76,-348 106.76,-574.33 0,-196.19 -35.6,-366.91 -106.76,-512.12 -71.19,-145.24 -166.96,-265.05 -287.44,-359.35 -120.4,-94.3 -261.85,-165.06 -424.22,-212.21 -162.42,-47.15 -333.06,-70.72 -511.84,-70.72l-503.69 0 0 2376.68zm3290.12 -3191.55l853.99 0 0 4006.42 -853.99 0 0 -4006.42z"/>
   <path class="fil1" d="M20064.45 8315.09l677.26 0 1617.04 4006.42 -924 0 -320.28 -848.81 -1443.78 0 -309.76 848.81 -903.03 0 1606.55 -4006.42zm315.02 1165.72l-451.52 1244.94 908.26 0 -456.74 -1244.94zm2383.57 -1165.72l819.02 0 0 3191.55 1517.28 0 0 814.87 -2336.3 0 0 -4006.42zm2819.3 0l819.06 0 0 3191.55 1517.24 0 0 814.87 -2336.3 0 0 -4006.42z"/>
  </g>
 </g>
</svg>
