<svg width="45" height="41" viewBox="0 0 45 41" fill="none" xmlns="http://www.w3.org/2000/svg">
<path fill-rule="evenodd" clip-rule="evenodd" d="M33.0512 2.67908C33.2935 2.11992 34.1324 0.749672 34.3841 0.181133C26.3217 -1.4592 17.8402 8.38323 17.6631 15.8956C39.0911 21.1339 38.0844 29.7925 31.2991 40.0731C52.7177 26.754 31.1032 16.3616 32.1379 11.2168C32.8276 13.985 35.195 15.9515 38.8953 15.2339C38.8953 15.2339 41.738 18.8224 45.0003 13.7333C40.3492 9.9585 37.7021 6.45383 33.0512 2.67908Z" fill="#02FF83"/>
<path fill-rule="evenodd" clip-rule="evenodd" d="M28.3717 39.7374C45.4283 19.0178 13.5427 20.2575 0 10.5081C2.5165 17.9179 5.75067 22.5688 19.5078 26.2318C33.265 29.8947 28.3717 39.7374 28.3717 39.7374Z" fill="#02FF83"/>
<path fill-rule="evenodd" clip-rule="evenodd" d="M25.9209 39.9706C31.4015 26.5396 10.7938 27.6302 0.746094 21.5625C2.48904 26.3346 4.38112 28.5996 15.1836 31.3958C25.9954 34.1826 25.9209 39.9706 25.9209 39.9706Z" fill="#02FF83"/>
</svg>
