<svg xmlns="http://www.w3.org/2000/svg" xmlns:xlink="http://www.w3.org/1999/xlink" width="800" zoomAndPan="magnify" viewBox="0 0 600 599.999999" height="800" preserveAspectRatio="xMidYMid meet" version="1.0"><path fill="#000000" d="M 172.738281 340.222656 C 165.960938 340.222656 160.445312 338.695312 156.199219 335.640625 C 151.957031 332.589844 149.460938 328.714844 148.714844 324.023438 L 162.011719 320.335938 C 162.457031 323.761719 163.574219 326.144531 165.363281 327.484375 C 167.226562 328.753906 169.980469 329.386719 173.632812 329.386719 C 179.589844 329.386719 182.570312 327.523438 182.570312 323.800781 C 182.570312 322.085938 182.011719 320.78125 180.894531 319.886719 C 179.777344 318.996094 177.652344 318.285156 174.523438 317.765625 L 165.363281 316.3125 C 160.445312 315.492188 156.609375 313.707031 153.855469 310.949219 C 151.171875 308.195312 149.832031 304.507812 149.832031 299.886719 C 149.832031 294.675781 151.769531 290.613281 155.640625 287.710938 C 159.515625 284.730469 164.878906 283.238281 171.730469 283.238281 C 185.363281 283.238281 193.148438 288.527344 195.082031 299.105469 L 182.570312 302.121094 C 182.195312 298.769531 181.265625 296.5 179.777344 295.308594 C 178.285156 294.117188 175.753906 293.519531 172.179688 293.519531 C 166.816406 293.519531 164.132812 295.417969 164.132812 299.21875 C 164.132812 300.855469 164.617188 302.121094 165.585938 303.015625 C 166.628906 303.910156 168.417969 304.542969 170.949219 304.917969 L 182.121094 306.59375 C 186.742188 307.1875 190.316406 308.863281 192.847656 311.621094 C 195.457031 314.300781 196.757812 317.839844 196.757812 322.234375 C 196.757812 327.894531 194.636719 332.328125 190.390625 335.53125 C 186.144531 338.660156 180.261719 340.222656 172.738281 340.222656 Z M 256.796875 310.949219 C 256.796875 312.960938 256.757812 314.710938 256.683594 316.199219 L 217.800781 316.199219 C 218.25 320.746094 219.515625 324.058594 221.601562 326.144531 C 223.761719 328.15625 227 329.160156 231.320312 329.160156 C 234.523438 329.160156 236.984375 328.601562 238.695312 327.484375 C 240.410156 326.367188 241.9375 324.359375 243.277344 321.453125 L 255.566406 325.921875 C 251.84375 335.457031 243.648438 340.222656 230.988281 340.222656 C 222.570312 340.222656 215.792969 337.652344 210.652344 332.515625 C 205.585938 327.375 203.054688 320.558594 203.054688 312.066406 C 203.054688 303.5 205.585938 296.574219 210.652344 291.285156 C 215.792969 285.921875 222.421875 283.238281 230.539062 283.238281 C 238.433594 283.238281 244.765625 285.773438 249.535156 290.839844 C 254.375 295.828125 256.796875 302.53125 256.796875 310.949219 Z M 230.652344 293.964844 C 226.703125 293.964844 223.6875 294.972656 221.601562 296.984375 C 219.589844 298.921875 218.324219 302.085938 217.800781 306.480469 L 242.71875 306.480469 C 242.644531 301.9375 241.636719 298.734375 239.703125 296.871094 C 237.765625 294.933594 234.746094 293.964844 230.652344 293.964844 Z M 297.992188 283.464844 C 301.046875 283.464844 303.246094 283.722656 304.585938 284.246094 L 304.585938 297.652344 C 302.648438 296.910156 300.191406 296.535156 297.210938 296.535156 C 292.519531 296.535156 288.792969 298.175781 286.039062 301.453125 C 283.355469 304.730469 282.015625 309.71875 282.015625 316.425781 L 282.015625 339.105469 L 267.824219 339.105469 L 267.824219 284.359375 L 282.015625 284.359375 L 282.015625 299.886719 C 283.953125 288.9375 289.277344 283.464844 297.992188 283.464844 Z M 350.160156 284.359375 L 365.691406 284.359375 L 344.683594 339.105469 L 327.8125 339.105469 L 306.921875 284.359375 L 322.339844 284.359375 L 336.304688 327.933594 Z M 411.863281 284.359375 L 426.054688 284.359375 L 426.054688 339.105469 L 411.863281 339.105469 L 411.863281 327.152344 C 408.363281 335.867188 402.03125 340.222656 392.871094 340.222656 C 385.125 340.222656 379.015625 337.652344 374.546875 332.515625 C 370.152344 327.300781 367.953125 320.410156 367.953125 311.84375 C 367.953125 303.128906 370.078125 296.199219 374.324219 291.0625 C 378.644531 285.847656 384.601562 283.242188 392.199219 283.242188 C 401.734375 283.242188 408.289062 287.710938 411.863281 296.648438 Z M 397.117188 327.375 C 402.332031 327.375 406.167969 326.109375 408.625 323.574219 C 411.082031 321.042969 412.3125 317.132812 412.3125 311.84375 C 412.3125 306.480469 411.082031 302.53125 408.625 300 C 406.167969 297.394531 402.332031 296.089844 397.117188 296.089844 C 387.207031 296.089844 382.253906 301.339844 382.253906 311.84375 C 382.253906 322.195312 387.207031 327.375 397.117188 327.375 Z M 459.792969 340.222656 C 453.015625 340.222656 447.5 338.695312 443.253906 335.640625 C 439.011719 332.589844 436.515625 328.714844 435.769531 324.023438 L 449.066406 320.335938 C 449.511719 323.761719 450.628906 326.144531 452.417969 327.484375 C 454.28125 328.753906 457.035156 329.386719 460.6875 329.386719 C 466.644531 329.386719 469.625 327.523438 469.625 323.800781 C 469.625 322.085938 469.066406 320.78125 467.949219 319.886719 C 466.832031 318.996094 464.707031 318.285156 461.578125 317.765625 L 452.417969 316.3125 C 447.5 315.492188 443.664062 313.707031 440.910156 310.949219 C 438.226562 308.195312 436.886719 304.507812 436.886719 299.886719 C 436.886719 294.675781 438.824219 290.613281 442.695312 287.710938 C 446.570312 284.730469 451.933594 283.238281 458.785156 283.238281 C 472.417969 283.238281 480.203125 288.527344 482.136719 299.105469 L 469.625 302.121094 C 469.25 298.769531 468.320312 296.5 466.832031 295.308594 C 465.339844 294.117188 462.808594 293.519531 459.234375 293.519531 C 453.871094 293.519531 451.1875 295.417969 451.1875 299.21875 C 451.1875 300.855469 451.671875 302.121094 452.640625 303.015625 C 453.683594 303.910156 455.472656 304.542969 458.003906 304.917969 L 469.175781 306.59375 C 473.796875 307.1875 477.371094 308.863281 479.902344 311.621094 C 482.511719 314.300781 483.8125 317.839844 483.8125 322.234375 C 483.8125 327.894531 481.691406 332.328125 477.445312 335.53125 C 473.199219 338.660156 467.316406 340.222656 459.792969 340.222656 Z M 500.945312 339.664062 C 497.964844 339.664062 495.65625 338.882812 494.019531 337.320312 C 492.453125 335.753906 491.671875 333.480469 491.671875 330.503906 C 491.597656 327.597656 492.378906 325.363281 494.019531 323.800781 C 495.65625 322.234375 497.964844 321.453125 500.945312 321.453125 C 504 321.453125 506.347656 322.234375 507.984375 323.800781 C 509.625 325.363281 510.445312 327.597656 510.445312 330.503906 C 510.519531 333.480469 509.699219 335.753906 507.984375 337.320312 C 506.347656 338.882812 504 339.664062 500.945312 339.664062 Z M 559.308594 284.359375 L 573.496094 284.359375 L 573.496094 339.105469 L 559.308594 339.105469 L 559.308594 327.152344 C 555.804688 335.867188 549.472656 340.222656 540.3125 340.222656 C 532.566406 340.222656 526.457031 337.652344 521.988281 332.515625 C 517.59375 327.300781 515.394531 320.410156 515.394531 311.84375 C 515.394531 303.128906 517.519531 296.199219 521.765625 291.0625 C 526.085938 285.847656 532.042969 283.242188 539.640625 283.242188 C 549.175781 283.242188 555.730469 287.710938 559.308594 296.648438 Z M 544.558594 327.375 C 549.773438 327.375 553.609375 326.109375 556.066406 323.574219 C 558.523438 321.042969 559.753906 317.132812 559.753906 311.84375 C 559.753906 306.480469 558.523438 302.53125 556.066406 300 C 553.609375 297.394531 549.773438 296.089844 544.558594 296.089844 C 534.652344 296.089844 529.699219 301.339844 529.699219 311.84375 C 529.699219 322.195312 534.652344 327.375 544.558594 327.375 Z M 597.179688 272.847656 C 595.613281 274.414062 593.339844 275.195312 590.363281 275.195312 C 587.386719 275.195312 585.074219 274.414062 583.4375 272.847656 C 581.871094 271.285156 581.089844 269.050781 581.089844 266.144531 C 581.089844 260.335938 584.179688 257.429688 590.363281 257.429688 C 593.339844 257.429688 595.613281 258.210938 597.179688 259.777344 C 598.816406 261.265625 599.636719 263.390625 599.636719 266.144531 C 599.636719 269.050781 598.816406 271.285156 597.179688 272.847656 Z M 583.324219 339.105469 L 583.324219 284.359375 L 597.515625 284.359375 L 597.515625 339.105469 Z M 88.957031 259.59375 L 110.308594 261.378906 C 110.308594 284.515625 85.460938 300.328125 71.089844 306.34375 L 101.605469 345.0625 L 83.464844 357.820312 L 56.871094 315.984375 L 31.867188 357.820312 L 13.527344 345.0625 L 42.328125 306.105469 L 0 295.570312 L 6.691406 274.273438 L 47.722656 289.441406 L 45.621094 242.179688 L 68.0625 242.179688 L 65.363281 289.699219 C 73.226562 289.699219 87.652344 273.285156 88.957031 259.59375 Z M 88.957031 259.59375 " fill-opacity="1" fill-rule="nonzero"/></svg>